<svg xmlns="http://www.w3.org/2000/svg" viewBox="0 0 45.32 35.35"><defs><style>.cls-1{fill:#fff;}</style></defs><title>Asset 22</title><g id="Layer_2" data-name="Layer 2"><g id="Layer_16_copy" data-name="Layer 16 copy"><path class="cls-1" d="M45.32,2v.19a2,2,0,0,0-.1.21C44.43,4.59,43.67,6.8,42.83,9a5.27,5.27,0,0,1-1,1.51c-.23.26-.33.42-.17.76a14.46,14.46,0,0,1,1.28,5.09,15.83,15.83,0,0,1-1.75,8.44,18.14,18.14,0,0,1-9.5,8.37,27.2,27.2,0,0,1-8.44,2c-.5,0-1,.12-1.48.19h-5.7a.87.87,0,0,0-.22-.08c-1.47-.13-3-.23-4.42-.4s-3.07-.43-4.6-.66L6.71,34a2.3,2.3,0,0,0,.4-.24l5.48-5c.22-.2.32-.34.08-.62A15.88,15.88,0,0,1,8.84,17.36a.87.87,0,0,0-.27-.58c-.9-.8-1.82-1.57-2.74-2.35L0,9.5s0-.06,0-.1l.37-.09c2-.38,4-.76,6-1.12,1-.18,2-.36,3-.48a4.51,4.51,0,0,1,2.8.57c.09-.1.16-.17.22-.24A16.28,16.28,0,0,1,18.1,3.32,35.1,35.1,0,0,1,30.68.19l2-.19h7.13a1.85,1.85,0,0,0,.36.09c.79,0,1.58.06,2.36.11.54,0,1.08.09,1.69.15l-2,2.15.51-.08ZM12.25,33.14c1.24-.19,2.43-.36,3.62-.57a3.31,3.31,0,0,0,2.86-2.34q3.44-11.07,6.9-22.14c.38-1.22.75-2.44,1.14-3.69-1.33.22-2.62.44-3.9.64a2.58,2.58,0,0,0-2.34,1.89c-.42,1.43-.89,2.84-1.36,4.26s-.94,2.83-1.41,4.24c-.11.35-.26.45-.55.17L17,15.45,11.89,10.8a3.13,3.13,0,0,0-2.6-1c-1,.14-2,.36-3,.53l-1.74.29a1.5,1.5,0,0,0,.13.17q5.55,4.75,11.11,9.49a.6.6,0,0,1,.24.76c-.67,2.09-1.3,4.19-2,6.29C13.5,29.25,12.88,31.17,12.25,33.14ZM23.87,17.62c-.4,1.2-.79,2.32-1.16,3.45a2,2,0,0,0,.35,2c.5.61,1,1.23,1.51,1.83,1,1.15,2,2.3,3,3.43a1.87,1.87,0,0,0,1.79.63c.9-.16,1.8-.33,2.7-.41a3.44,3.44,0,0,0,3.17-2.74c1.4-4.23,2.89-8.43,4.34-12.65a1.63,1.63,0,0,0,0-.28,1.9,1.9,0,0,0-.27,0l-3.53.6A2.18,2.18,0,0,0,34,15.11c-1.14,3.31-2.31,6.61-3.47,9.91-.05.15-.16.37-.27.38a.59.59,0,0,1-.42-.25c-1.2-1.51-2.39-3-3.58-4.55Zm6.26,3.55c.35-.92.64-1.71.94-2.5,1-2.57,2-5.13,3-7.69a1,1,0,0,1,.48-.5,2.87,2.87,0,0,1,.74-.12c1.39-.25,2.78-.49,4.16-.76A2,2,0,0,0,41,8.24q.58-1.74,1.15-3.48a.56.56,0,0,0,0-.19l-5.73,1c-2.1.36-4.2.76-6.31,1.09a3.89,3.89,0,0,0-2.78,1.3,2,2,0,0,0-.28.38c-.5,1.19-1,2.38-1.51,3.65L29,11.43c-.49,1.65-1,3.26-1.44,4.87a2.14,2.14,0,0,0,.17,2C28.48,19.23,29.3,20.15,30.13,21.17Zm10.27-7.63h-.1c-.2.58-.4,1.15-.6,1.73a2.2,2.2,0,0,0-.16.63c0,1,.06,2,0,3a12.93,12.93,0,0,1-2.8,6.85c-.52.67-1.08,1.31-1.57,2a3.15,3.15,0,0,1-1.94,1.4,4.2,4.2,0,0,0-1,.4,14,14,0,0,1-9.46,1.48c-1.07-.21-2.11-.56-3.19-.85l-.2.58.17.09a15.08,15.08,0,0,0,9.24.95A14.89,14.89,0,0,0,39.38,24a13.7,13.7,0,0,0,1.47-8.33C40.76,14.93,40.55,14.24,40.41,13.54Zm-26.9-2.33.11,0a2.79,2.79,0,0,0,.16-.23c1.94-3.31,5-5.15,8.46-6.51a19.75,19.75,0,0,1,3.93-.73l1.49-.25C22.82,2.3,15,6.17,13,10.55Zm-2.56,5.93c-.68,1.75,1.09,7.68,2.76,9,0-.41.17-.83,0-1.07a12.92,12.92,0,0,1-2-6.6A1.52,1.52,0,0,0,10.95,17.14ZM33.77,5.34a15.38,15.38,0,0,0-5.49-1.91c-.24,0-.44,0-.46.31a2.63,2.63,0,0,1-.14.51,11.51,11.51,0,0,1,4,1.11C32.42,5.71,33,5.43,33.77,5.34Zm-7.7,22.58a1.13,1.13,0,0,0-1.23-.76A3.38,3.38,0,0,1,23.68,27c-1-.25-1.89-.54-2.86-.83l-.2.62A10.71,10.71,0,0,0,26.08,27.92ZM19,9.27a10.35,10.35,0,0,0-3,3.48c-.35.65-.34.67.23,1A25.32,25.32,0,0,1,18,11.29,4.1,4.1,0,0,0,19,9.27ZM39.88,12.1c-.28-.54-.53-1-.8-1.52a.28.28,0,0,0-.22-.12c-.35,0-.69.12-1.06.18l.85,1.7Zm-5.52,1.34.65-.38-.67-1.16A1.05,1.05,0,0,0,34.36,13.44Z"/></g></g></svg>