<svg xmlns="http://www.w3.org/2000/svg" viewBox="0 0 58.15 38.9"><defs><style>.cls-1{fill:#fff;}</style></defs><title>Asset 21</title><g id="Layer_2" data-name="Layer 2"><g id="Layer_16_copy" data-name="Layer 16 copy"><path class="cls-1" d="M10.47,2.69c-.55.09-.83.39-.83.59a.35.35,0,0,0,0,.1A3.39,3.39,0,0,1,10.47,2.69Z"/><path class="cls-1" d="M21,5.67c0-.19,0-.32-.17-.32s-.66.77-1,1.35A1.21,1.21,0,0,0,21,5.67Z"/><path class="cls-1" d="M10.06,3.71a1.2,1.2,0,0,0,.37.05c.35,0,1.17-.33,1.17-.74a.24.24,0,0,0-.25-.24C11,2.79,10.33,3.4,10.06,3.71Z"/><path class="cls-1" d="M58,14.58a2.37,2.37,0,0,0-.49-.75L52.21,8.45a2.34,2.34,0,0,0-1.67-.71H32a2,2,0,0,0-1.11.34,2,2,0,0,0-1.11-.34H22.47a2.31,2.31,0,0,0-.4,0,3.12,3.12,0,0,0,.85-2,2.31,2.31,0,0,0-2.14-2.49h-.1l-.21,0A1.61,1.61,0,0,0,19.6,3L19,3l-.19.16A2.16,2.16,0,0,0,18,3H17.8l-.45,0a6.93,6.93,0,0,0-.8.1,1.84,1.84,0,0,0-1.26-.52A1.66,1.66,0,0,0,14,3.25a3,3,0,0,0-.52-.14c0-.06,0-.13,0-.19A1.93,1.93,0,0,0,12.23,1,2.44,2.44,0,0,0,10.83.6a3.31,3.31,0,0,0-2.37,1A9.36,9.36,0,0,0,3.52,0H3.33C1.69,0,1.09.35.69.78l0,0A2,2,0,0,0,0,2.23,1.7,1.7,0,0,0,.49,3.47,1.88,1.88,0,0,0,1.88,4H2a2,2,0,0,0-.87,1.63A3.11,3.11,0,0,0,2.51,7.86a1.85,1.85,0,0,0-.76.46,2,2,0,0,0-.59,1.42v7.8a2.37,2.37,0,0,0,.68,1.65L5.9,23.32,1.85,27.45a2.37,2.37,0,0,0-.69,1.66v7.8a2,2,0,0,0,2,2h7.68a2.46,2.46,0,0,0,.86-.18,2.33,2.33,0,0,0,.78-.53l4-4.1,4,4.08a2.31,2.31,0,0,0,.83.56,2.45,2.45,0,0,0,.86.17h7.65a2,2,0,0,0,1.11-.34A2,2,0,0,0,32,38.9H50.57a2.46,2.46,0,0,0,.84-.17,2.2,2.2,0,0,0,.79-.53l5.29-5.39a2.39,2.39,0,0,0,.66-1.64V15.48A2.39,2.39,0,0,0,58,14.58Zm-38.42-10c.11-.09.21.16.12.35a5.24,5.24,0,0,0-.53,1.15.39.39,0,0,0,0,.17c.44-.57,1.2-1.42,1.59-1.44.14,0,.59.17.59.94a1.92,1.92,0,0,1-1.73,1.66h-.12c-.08.35-.31,1.16-.46,1.6s-.12.76-.2.78-.55-.3-.56-.64a9.34,9.34,0,0,1,.5-2.28,1.33,1.33,0,0,1-.14-.57A2.79,2.79,0,0,1,19.55,4.59Zm-3.12,1.3c0-.2.31-.23.34-.3a1.3,1.3,0,0,0,.08-.34c0-.06-.42-.14-.42-.35s.87-.22,1.54-.29c.39,0,.71.33.68.42a.26.26,0,0,1-.21.17c-.06,0-.9,0-1,.09s-.1.29-.07.34a3.15,3.15,0,0,0,.67.06.22.22,0,0,1-.06.42c-.1,0-.71,0-.8,0s-.19.49-.14.54a9.16,9.16,0,0,0,1-.13c.14,0,.34.16.32.29a2,2,0,0,1-1.38.62c-.46,0-.62-.49-.62-.72a4.19,4.19,0,0,1,.19-.67C16.51,6,16.43,5.94,16.43,5.89ZM14.27,4.81c.33,0,1.14,1.52,1.23,1.5s.07-.16.07-.24c0-.38-.39-1.36-.39-1.65,0-.09,0-.18.1-.18.33,0,.9,1.06.9,1.93,0,.38-.23,1-.62,1s-1-1.36-1.13-1.36,0,1.49-.35,1.49-.33-.25-.33-.61S13.93,4.79,14.27,4.81Zm-1.72-.23c.38,0,1.06,0,1.06.26,0,.45-2.18.21-2.19.54,0,.1.47.12.91.16s1.26.14,1.27.86c0,.3-.25.88-1.25.88S11,6.76,11,6.54c0-.43.41-.55.69-.55s1.14.11,1.14.33-.22.24-.48.24-.65-.24-.83-.24a.24.24,0,0,0-.27.2c0,.07,0,.22.51.22.24,0,1.41-.13,1.41-.46,0-.15-.54-.29-1-.34s-1.36.08-1.36-.48C10.81,4.62,12.27,4.59,12.55,4.59ZM10.83,2.16a.94.94,0,0,1,.67.3c.34,0,.48.19.48.46,0,.6-1,1.33-1.63,1.33a1.61,1.61,0,0,1-.51-.07.27.27,0,0,1-.24.16c-.11,0-.19-.09-.2-.44a.8.8,0,0,1-.19-.52A1.61,1.61,0,0,1,10.83,2.16Zm-.55,5.16c-.25,0-.4-.11-.38-1.08,0-.43,0-1.59.3-1.6s.33.3.36,1.84C10.59,7.29,10.51,7.32,10.29,7.32Zm-8.17-5c0,.08-.11.09-.24.09s-.33,0-.33-.19h0c0-.18.16-.29.28-.43a3.18,3.18,0,0,1,1.54-.27c2.9-.08,6.23,2.33,6.23,4,0,1.25-1.35,2.17-3,2.17A4.74,4.74,0,0,1,5.37,7.6c0,.19-.1.37-.34.37s-.4-.26-.42-.64C3.45,6.81,2.73,6,2.73,5.64s.89-.82,1.89-1c0-.48.09-1.35.32-1.35s.35.79.37,1.29h.08c1.79,0,2.33.52,2.33,1a.67.67,0,0,1-.41.55c-.18,0-.4,0-.4-.09s.23-.22.23-.36-.88-.4-1.54-.4H5.32c0,.54,0,1.39,0,1.8a4.64,4.64,0,0,0,.92.09c.9,0,2.53-.29,2.52-1.56C8.81,4,5.65,2,2.91,2c-.32,0-1,0-1,.15S2.12,2.27,2.12,2.37ZM30.25,17.53a.88.88,0,0,1-.06.3.81.81,0,0,1-.18.27L25.18,23a.44.44,0,0,0,0,.62L30,28.55a.8.8,0,0,1,.18.27.92.92,0,0,1,.06.3v7.8a.43.43,0,0,1-.43.43H22.17a.86.86,0,0,1-.29-.06.74.74,0,0,1-.26-.18l-4.83-4.92a.42.42,0,0,0-.61,0l-4.83,4.92a.78.78,0,0,1-.26.18.87.87,0,0,1-.3.06H3.14a.43.43,0,0,1-.43-.43v-7.8a.81.81,0,0,1,.23-.57l4.83-4.92a.44.44,0,0,0,0-.62L2.95,18.1a.81.81,0,0,1-.18-.27.82.82,0,0,1-.06-.3V9.73a.42.42,0,0,1,.12-.31.41.41,0,0,1,.3-.12h7.35a.7.7,0,0,1,.29.06.75.75,0,0,1,.26.18l5.13,5.22a.42.42,0,0,0,.61,0l5.13-5.22a.75.75,0,0,1,.26-.18.69.69,0,0,1,.29-.06h7.36a.42.42,0,0,1,.3.12.43.43,0,0,1,.13.31ZM56.59,31.16a.81.81,0,0,1-.06.31.83.83,0,0,1-.16.26l-5.28,5.37a.72.72,0,0,1-.26.18.87.87,0,0,1-.29.06H32a.42.42,0,0,1-.3-.13.43.43,0,0,1-.13-.3V9.73a.44.44,0,0,1,.13-.31A.41.41,0,0,1,32,9.3H50.54a.71.71,0,0,1,.29.06.73.73,0,0,1,.26.18l5.28,5.37a.81.81,0,0,1,.16.26.83.83,0,0,1,.06.31Z"/><path class="cls-1" d="M2.92,5.74c0,.19.68.76,1.67,1.11,0-.44,0-1.1,0-1.56C3.8,5.34,2.92,5.45,2.92,5.74Z"/></g></g></svg>