<svg xmlns="http://www.w3.org/2000/svg" viewBox="0 0 101.27 39.08"><defs><style>.cls-1{fill:#fff;}</style></defs><title>Asset 20</title><g id="Layer_2" data-name="Layer 2"><g id="Layer_16_copy" data-name="Layer 16 copy"><path class="cls-1" d="M25.54,5.46a6.11,6.11,0,0,1,1.11-1,2.16,2.16,0,0,0-2,1.71.62.62,0,0,0,.08.31A10.3,10.3,0,0,1,25.54,5.46Z"/><path class="cls-1" d="M6,13.57c0,.74,1.91,2.15,4.4,3.07.12-1.51.14-3.1.16-4.29C8.57,12.49,6,12.86,6,13.57Z"/><circle class="cls-1" cx="64.72" cy="27.12" r="0.81"/><path class="cls-1" d="M54.63,12.19c-.44,0-1.69,1.36-2.9,3.73C54.74,15.61,55.39,12.17,54.63,12.19Z"/><path class="cls-1" d="M27.09,7.24a2.83,2.83,0,0,0,2.91-2c0-.32-.13-.61-.6-.59-1.59,0-3.13,2.11-3.43,2.53A5.82,5.82,0,0,0,27.09,7.24Z"/><circle class="cls-1" cx="61.39" cy="27.12" r="0.81"/><path class="cls-1" d="M99.93,18.73h-.87a11.61,11.61,0,0,0-3.26.37v0H85.5a1.21,1.21,0,0,0-1.21,1.21v.83a13.75,13.75,0,0,0-15.49,0V19.92a.85.85,0,0,0-.85-.85,5.37,5.37,0,0,0,.54-1.74,4.21,4.21,0,1,0-4.35-6.89,4.21,4.21,0,0,0-7.22-.72,3.13,3.13,0,0,0-2.42-1.16H54.4a3.71,3.71,0,0,0-1.18.24,2.15,2.15,0,0,0-1.82-1h-.06a2.85,2.85,0,0,0-1.88.93l0,0a3.5,3.5,0,0,0-2.27-.69h-.24c-.51,0-1.72.1-2.81.25a12.63,12.63,0,0,0-1.63.31l-.25.08A3.68,3.68,0,0,0,39.48,7h-.07a2.33,2.33,0,0,0-2.19,1.67,2.46,2.46,0,0,0-.38,0h-.07a2.59,2.59,0,0,0-.71.12,4.33,4.33,0,0,0-1.39-.48A13.36,13.36,0,0,0,32.4,8.1h-.58a5,5,0,0,0,1.36-3.3,3.3,3.3,0,0,0-2.49-3.16A3.79,3.79,0,0,0,28.13.81H28a7.38,7.38,0,0,0-4.48,1.68A5.54,5.54,0,0,0,21.6,5.24a23.8,23.8,0,0,0-11.1-5A25.54,25.54,0,0,0,7.11,0H6.79A13.92,13.92,0,0,0,2.36.8,4.15,4.15,0,0,0,0,4.15,2.94,2.94,0,0,0,3.16,6.82h.12a5.16,5.16,0,0,0,1-.12A2.44,2.44,0,0,0,5.92,5.56l.65,0h.21a12.27,12.27,0,0,1,2.57.32,3.64,3.64,0,0,0-.25.55,8,8,0,0,0-.34,1.48c0,.33-.09.66-.12,1-3.45.86-5.42,2.55-5.36,4.67a5.81,5.81,0,0,0,2,3.51,14.43,14.43,0,0,0,3.34,2.41C9.25,21.76,10.76,22,11.45,22h.08a4.25,4.25,0,0,0,.95-.12v5.26l-.08,0-1.25-.87a1.83,1.83,0,0,0-2.65.62L4.87,33.54a1.62,1.62,0,0,0,.26,1.91l.22.23a13.18,13.18,0,0,0,9.11,3.38h.11a9.4,9.4,0,0,0,8.09-3.83h0c1.34,1.75,4,3.83,9.13,3.83h0A11.77,11.77,0,0,0,39,37v.45a1.35,1.35,0,0,0,1.35,1.35H67.41a1.39,1.39,0,0,0,1.39-1.39v-.74a12.51,12.51,0,0,0,7.74,2.42,12.69,12.69,0,0,0,7.76-2.43v.62a1.51,1.51,0,0,0,1.51,1.51h8.47A1.72,1.72,0,0,0,96,37.07V30.3a1.1,1.1,0,0,1,1.09-.73,3.35,3.35,0,0,1,1.3.33l.39.17a1.78,1.78,0,0,0,2.49-1.63V20.07A1.35,1.35,0,0,0,99.93,18.73ZM51.4,9.84c.19,0,.27.87-.19,1.61-.66,1-1.42,2.55-1.29,3.52,1.46-2.4,3.28-4.31,4.54-4.35.87,0,1.38.93,1.42,2.28.08,2.56-2.25,5-4.26,5a2.78,2.78,0,0,1-.76-.09A26.06,26.06,0,0,0,49.3,23.6c-.06.39-.08.91-.4.92s-1.41-.65-1.46-2.4A12.77,12.77,0,0,1,49,16.53a2.88,2.88,0,0,1-.42-1.48A6.46,6.46,0,0,1,51.4,9.84Zm-8.82,4.34c-.08-.41-.26-.87.42-.94l.2,0L43.77,12a2.08,2.08,0,0,1-.58-.16,1.45,1.45,0,0,1-.75-.94c0-.5,3.68-.8,4.53-.83s1.18.15,1.47.57a2.05,2.05,0,0,1,.41.83c0,.11-.1.4-1.21.43-.57,0-1.48.11-2.36.14l-.38,1L46.55,13c.45,0,.85-.09.81.5s-.06.82-.54.84l-2.42.07c-.08.27-.29,1-.38,1.25s.25.29.73.15A14.19,14.19,0,0,1,47,15.46c.53,0,.92.83.62,1.12A6.51,6.51,0,0,1,44,18.3a1.81,1.81,0,0,1-1.76-1.77,6.2,6.2,0,0,1,.46-2.05C42.65,14.44,42.61,14.36,42.58,14.18Zm-5.75-3.48c1,0,3,4.31,3.3,4.3s.09-1-.13-2.12c-.48-2.5-1.24-3.8-.53-3.82.52,0,2.24,1.64,2.33,4.85,0,1.49-.17,3.44-1.52,3.48s-2.74-4-3.07-4A18.67,18.67,0,0,0,37,16.65c0,.75-.31,1.16-.73,1.17-.64,0-.92-.59-1-1.8S35.65,10.73,36.83,10.69ZM32,10.16c1.41,0,3.19.14,3.2.59a.88.88,0,0,1-.89.89c-.89.09-5.38.28-5.36.84,0,.29,1.36.36,2.6.43s3.31.12,3.38,2.18c0,1.62-.57,2-.84,2.1a7.62,7.62,0,0,1-2.44.64c-2.73.08-3.85-1.49-3.88-2.28s.71-1.33,1.93-1.37,3.12.4,3.13.91-.82.62-1.19.63c-1.67,0-1.59-.63-2.55-.6-.55,0-1.32,1.18,1.43,1.1,2.45-.07,3.19-.88,3.18-1.31s-1.77-.85-2.79-.91a9.42,9.42,0,0,1-3.06-.37c-.52-.33-.45-1.07-.27-1.69C27.95,10.65,30.58,10.2,32,10.16ZM28,2.87c1.18,0,1.51.46,1.61.71a1.31,1.31,0,0,1,1.5,1.3c0,1.45-2.15,3.71-4.57,3.78a3.14,3.14,0,0,1-1.17-.23c-.25.39-.42.62-.67.63S24,8.37,24,8.11a1.32,1.32,0,0,1,.1-.5,1.88,1.88,0,0,1-.6-1.26C23.46,4.85,25.44,2.94,28,2.87ZM26.72,17.52c-.05.35-.18.52-.77.53a.83.83,0,0,1-.92-.86c-.05-.52-.09-2-.07-2.75s.06-2.16.16-3.05.34-1.08.61-1.09.84.82.86,1.34.14,3.23.18,4A11.82,11.82,0,0,1,26.72,17.52ZM22.4,30.12c0,1.2-1.12,6.91-7.88,6.88a11.11,11.11,0,0,1-7.7-2.76l3.58-6.53a2.07,2.07,0,0,0,2.29,1.54c2,0,1.84-1.56,1.84-1.7s0-4.85,0-7.47q.71.07,1.42.07h.43a10.51,10.51,0,0,0,6-1.83Zm-6-10.9a13.5,13.5,0,0,1-3.84-.44c0,.76,0,1.17-1.05,1.2-.66,0-.92-1.05-1-1.93-3.17-1.41-5.08-3.69-5.1-4.59,0-1.34,2.4-2.46,5.25-2.9,0-1.11.23-3.94.81-4,.24,0,.72.54.91,1.38a15,15,0,0,1,.19,2.39h.22c4-.12,6.4,1.13,6.45,2.62a1.72,1.72,0,0,1-1.52,1.75c-.53,0-1.16-.29-1.16-.45,0-.32,1.14-.39,1.12-.9,0-.77-3.21-1.11-5.17-1.12,0,.66,0,1.47,0,2s0,1.86.06,3a11.49,11.49,0,0,0,2.71.26c2.11-.06,6.95-.83,6.84-4.46C21.9,8,11.88,3.32,6.51,3.48c-2.11.06-3.38.29-3.38.5s1,.19,1,.47-.58.31-.94.32c-.66,0-1.16-.27-1.17-.67a2.45,2.45,0,0,1,1-1.37,11.5,11.5,0,0,1,3.77-.66,22,22,0,0,1,3.35.25C17,3.31,24.06,8.46,24.2,13,24.29,16.15,21.6,19.07,16.35,19.22ZM40.53,30.45c0,.32-.5,6.55-8.71,6.55s-8.87-5.92-8.87-6.45V21.13h7.51v8.13A1.3,1.3,0,0,0,33,29V21.13h7.5ZM58.7,36.74H51.17v-7c0-2.54-2.78-2-2.58-.12v7.09H41V21.13h5.54a7.16,7.16,0,0,0,0,1c.06,2.12,1.44,3.29,2.36,3.29h0c1.06,0,1.21-1.17,1.26-1.55l0-.15q.18-1.2.48-2.37a6.74,6.74,0,0,1,3.13-.63c4.49.11,4.89,5.4,4.89,5.4Zm-.54-24.53a2.16,2.16,0,1,1,3.94,1.22,3.37,3.37,0,0,1,3,.52,2.16,2.16,0,1,1,1,1.26,3.36,3.36,0,1,1-5.5-.88,2.14,2.14,0,0,1-2.5-2.13Zm8.59,24.53H59.19V21.13h7.55Zm9.79.29c-5.22,0-9.39-3-9.45-8.12s4.23-8.12,9.45-8.12S86,23.73,86,28.9,81.76,37,76.54,37Zm22.68-9c-3.78-1.65-5.27,1.24-5.27,2.17v6.55h-7.6V21.13h7.4v2c1.46-1.75,2.17-2.37,5.47-2.35Z"/><path class="cls-1" d="M76.56,26.68a2.06,2.06,0,0,0-2.11,2.23,2.12,2.12,0,1,0,4.23,0A2.05,2.05,0,0,0,76.56,26.68Z"/></g></g></svg>