<svg xmlns="http://www.w3.org/2000/svg" viewBox="0 0 93.38 40.67"><defs><style>.cls-1{fill:#fff;}</style></defs><title>Asset 19</title><g id="Layer_2" data-name="Layer 2"><g id="Layer_16_copy" data-name="Layer 16 copy"><path class="cls-1" d="M93.19,18.75c-.65-3.34-3.84-4.92-5.29-5.3a7.6,7.6,0,0,0-4.86.36,9.46,9.46,0,0,0-2.32,1.41A5.69,5.69,0,0,0,77,13.78c-1.41.07-7.2.74-8.69,1.53-.82-1.44-2.09-3-3.64-3.17a2.11,2.11,0,0,0-1.87.83,4.2,4.2,0,0,0-.37,3.18c-2.21-2.21-7.17-2.36-10.33-2.38a23.25,23.25,0,0,0-8,1.36,14,14,0,0,0,4.08-3.44,4,4,0,0,0,3.7-1.64,4.13,4.13,0,0,0,.21-4.19,4.5,4.5,0,0,0-2.75-2.24,4.1,4.1,0,0,0-3.68.73,3.62,3.62,0,0,0-.79-1.88,4,4,0,0,0-1.64-1.22A4.3,4.3,0,0,0,39,1.82a3.83,3.83,0,0,0-1.34,2A3.59,3.59,0,0,0,38,6.49h0a5.59,5.59,0,0,0-2.12,4.25A37.79,37.79,0,0,0,26.75,4.2,37.1,37.1,0,0,0,11.6,0,33.6,33.6,0,0,0,4,.68C.09,1.84-.28,4.67.13,5.89S2.21,7.8,4.27,7.45A2.19,2.19,0,0,0,6,5.68a31.19,31.19,0,0,1,9.77,1,30.48,30.48,0,0,0-1.53,7.73A24.46,24.46,0,0,0,9,16.08a6.31,6.31,0,0,0-3.43,3.17C5,20.88,6,22.48,7,23.71a22.88,22.88,0,0,0,7.22,5.43,3.82,3.82,0,0,0,2.41,3.3,3.38,3.38,0,0,0,3.86-1.23,27.37,27.37,0,0,0,4.68.43v1.85a4.17,4.17,0,0,0,4.15,4.16H76.11c.59,1.23,1.78,2.69,3.15,3,2.46.48,2.75-1.8,2.88-2.52a16.29,16.29,0,0,1,.49-2.24l1.8-6a11.25,11.25,0,0,0,4.63-1.91,11.53,11.53,0,0,0,3.12-3.38A7.74,7.74,0,0,0,93.19,18.75ZM59.87,16.53c1.56.11,5.28,6.92,5.71,6.8.28-.08.3-.72.3-1.07,0-1.72-1.79-6.22-1.79-7.51,0-.43.07-.84.45-.84,1.53,0,4.15,4.83,4.16,8.79,0,1.72-1.06,4.38-2.88,4.38s-4.68-6.2-5.23-6.2c-.74,0,.21,6.79-1.63,6.79-1.24,0-1.54-1.12-1.54-2.79S58.27,16.41,59.87,16.53Zm-7.82-1c1.78,0,4.93,0,4.93,1.2,0,2.05-10.11.94-10.13,2.44,0,.46,2.19.56,4.24.73,2.72.23,5.85.61,5.86,3.91,0,1.36-1.17,4-5.81,4s-6.38-2.4-6.38-3.42c0-2,1.88-2.51,3.2-2.52h.19c1.43,0,5.1.53,5.11,1.48,0,.55-1,1.09-2.24,1.09s-3-1.09-3.85-1.09a1.12,1.12,0,0,0-1.24.91c0,.33.05,1,2.35,1,1.11,0,6.53-.61,6.52-2.1,0-.67-2.49-1.33-4.53-1.54-.65-.07-1.38-.07-2.11-.09-2.1-.05-4.17-.2-4.18-2.09C44,15.71,50.72,15.55,52,15.55ZM40.61,6.82a2.41,2.41,0,0,1-1.4-1.35,2.1,2.1,0,0,1,.32-2,2.76,2.76,0,0,1,3.58-.54,2.25,2.25,0,0,1,1.05,1.75,2.16,2.16,0,0,1-.59,1.56,3.4,3.4,0,0,1,2.2,1h0a2.14,2.14,0,0,1,.27-1A2.41,2.41,0,0,1,47.9,5.06,2.9,2.9,0,0,1,50.28,6,2.6,2.6,0,0,1,51,7.65a2.37,2.37,0,0,1-.78,1.92,2.48,2.48,0,0,1-2.07.54,2.19,2.19,0,0,1-.88-.28,7.3,7.3,0,0,1-5.59,3.69c-3.26-.06-4.07-1.94-4.08-3S38.72,7.73,40.61,6.82ZM25,29.95a22.57,22.57,0,0,1-5.62-.7c-.12.86-.5,1.67-1.61,1.67-1.53,0-1.86-1.17-1.95-2.89-5.37-2.33-8.69-6.17-8.69-7.69,0-1.86,4.12-3.75,8.76-4.45.09-2.19.4-6.15,1.48-6.15,1.3,0,1.64,3.59,1.72,5.88,8.61,0,11.17,2.38,11.17,4.41a3.07,3.07,0,0,1-1.89,2.49c-.86-.06-1.85,0-1.86-.42s1.07-1,1.07-1.62-4-1.81-7.13-1.8H19.16c0,2.45.16,6.33.22,8.17a22.61,22.61,0,0,0,4.28.41c4.16,0,11.71-1.31,11.7-7.11C35.33,12.7,20.7,3.9,8,3.93c-1.48,0-4.44.13-4.44.69s.77.38.77.86-.52.38-1.1.38S1.69,5.79,1.71,5A3.09,3.09,0,0,1,3.59,2.66a10.88,10.88,0,0,1,2.61-.6,38.62,38.62,0,0,1,3.94-.29C23.58,1.4,39,12.4,39,20.05,39.06,25.76,32.8,29.92,25,29.95Zm7.78,6.88c-1.73-.18-1.26,0-2,.12s-1.53-.2-1.53-1.15c0-.23-.05-3.1-.08-4.59a.63.63,0,0,1,1.25,0c0,.17.07,3.9.08,4.54h.07a4.08,4.08,0,0,1,2.3-.13.63.63,0,1,1-.13,1.25Zm6.74-.31a.62.62,0,0,1-.84-.28c-.38-.76-.8-1.56-1.2-2.31-.69.22-1.53.53-2.2.78-.15.56-.29,1.14-.42,1.69a.63.63,0,0,1-1.22-.29l.22-.93A.62.62,0,0,1,33.7,34l.54-.21c1-3.87,1.39-3.89,1.81-3.9s.65,0,2.1,2.6a.62.62,0,0,1,.57.47.61.61,0,0,1-.07.47c.34.64.72,1.39,1.16,2.27A.63.63,0,0,1,39.53,36.52Zm.67-13.78c0-1.94.08-7.24,1.39-7.25,1,0,1.51,1.35,1.67,8.36.09,3.7-.27,3.83-1.32,3.83S40.1,27.17,40.2,22.75Zm9.18,13.17a30.53,30.53,0,0,1-5.52.47,2.45,2.45,0,0,1-2.3-1.33c-.25-.74.11-1.53,1.07-2.33,2.17-1.81,3.43-2.13,4.3-2.2a1.35,1.35,0,0,1,1.56.95.63.63,0,0,1-1.21.33.46.46,0,0,0-.25,0c-.68.05-1.7.32-3.59,1.91-.62.52-.72.85-.68,1s.58.45,1,.48A29.84,29.84,0,0,0,49,34.73a.63.63,0,1,1,.4,1.19ZM55,33.4l.12,2.67a.63.63,0,0,1-.6.65h0a.63.63,0,0,1-.62-.6l-.11-2.38L52,34.28v1.54a.63.63,0,1,1-1.25,0V34.66l-.18.05a.59.59,0,0,1-.18,0,.63.63,0,0,1-.18-1.23l.54-.16V31A.63.63,0,1,1,52,31V33l1.76-.51-.09-2a.63.63,0,1,1,1.25-.06l.08,1.7.1,0a.61.61,0,0,1,.71.53C55.8,33,55.57,33.31,55,33.4Zm7,3.12a.62.62,0,0,1-.84-.28c-.38-.76-.8-1.56-1.2-2.31-.69.22-1.53.53-2.2.78-.14.56-.29,1.14-.42,1.69a.62.62,0,0,1-.68.47.63.63,0,0,1-.54-.76l.22-.93a.62.62,0,0,1-.19-1.2l.54-.21c1-3.87,1.39-3.89,1.81-3.9s.65,0,2.09,2.6a.62.62,0,0,1,.51.94c.33.64.72,1.39,1.16,2.27A.62.62,0,0,1,62,36.52Zm1.88-.29a.63.63,0,1,1-1.25,0V30.32a.63.63,0,0,1,1.25,0Zm.48-6.72c-.06.1-.35.1-.48.07s-.26-.29-.32-.36-.22-.32-.4-.33-.27.33-.39.5a.71.71,0,0,1-.56.25c-.22,0-.25-.15-.22-.25S62.7,28,63.13,28c.18,0,.5.3.59.39a6.49,6.49,0,0,1,.49.54A.64.64,0,0,1,64.36,29.51ZM69.9,34c0,1.07,0,2-.52,2.27a.8.8,0,0,1-.79,0c-.3-.15-.66-.59-2.17-2.61l-.6-.8c0,1.31,0,3.1,0,3.41a.62.62,0,0,1-.52.68.62.62,0,0,1-.69-.41,17.61,17.61,0,0,1-.08-2.72c0-2.76,0-2.94.49-3.13s.81.19,1.28.79c.3.38.68.89,1.08,1.43s.85,1.13,1.22,1.61c0-1,.16-4.13.2-4.42a.63.63,0,0,1,1.24.15C70.06,30.49,69.92,33,69.9,34Zm5.84,1.82c-.63.42-2,.29-3.32.42A1.64,1.64,0,0,1,71.07,36,5.83,5.83,0,0,1,70.64,34a.57.57,0,0,1,0-.16v0c-.13-1.14-.21-2.29-.21-2.31a.81.81,0,0,1,.24-.6c.31-.3.75-.31,1.51-.29s2.55-.09,2.78-.12a.63.63,0,0,1,.31,1.21,30.61,30.61,0,0,1-3.12.16h-.45c0,.33,0,.47.09,1,1,0,2.31-.13,2.88-.23a.58.58,0,0,1,.61.57.61.61,0,0,1-.52.61,19.42,19.42,0,0,1-2.82.26c0,.24.1.84.13,1a13.49,13.49,0,0,0,3.08-.36c.34-.06.63-.08.8.22A.72.72,0,0,1,75.74,35.83ZM72,28.57c-2.11.07-2.88-2.23-2.88-3.27a19.27,19.27,0,0,1,.86-3.07c.07-.26-.29-.6-.27-.81.09-.93,1.43-1,1.55-1.37a5.92,5.92,0,0,0,.35-1.56c0-.26-1.94-.64-1.94-1.6s4-1,7.14-1.34c1.81-.2,3.28,1.5,3.16,1.9a1.21,1.21,0,0,1-1,.79c-.29.07-4.17.18-4.75.42-.29.12-.47,1.3-.33,1.53s2.7.24,3.11.28a1,1,0,0,1-.25,1.91c-.46,0-3.28,0-3.73.13s-.9,2.23-.67,2.45,3.85-.59,4.5-.59,1.56.72,1.48,1.34C78.29,26.14,75.3,28.46,72,28.57Zm11.18-.43c-.37,1.58-1.45,5.26-2.13,7.28-.48,1.41-.56,3.48-.92,3.56-1,.21-2.56-1.34-2.58-2.92C77.45,33,79.15,28,79.85,25.69a6,6,0,0,1-.64-2.58c0-3.38,3.1-7,4.08-7.8.51-.41,1,.73.56,1.59S81.38,21,81.39,22.12a1.88,1.88,0,0,0,.21.76c2-2.6,5.54-6.47,7.35-6.57.66,0,2.73.8,2.74,4.3S87.37,28.43,83.14,28.14Z"/><path class="cls-1" d="M89.15,18.8c-.82,0-3.05,3.5-4.58,6.15,2.24,0,5.38-2.11,5.37-4.7C89.94,19.38,89.72,18.81,89.15,18.8Z"/><path class="cls-1" d="M58.17,33.23l1.19-.41c-.26-.47-.5-.88-.7-1.19C58.52,32,58.35,32.6,58.17,33.23Z"/><path class="cls-1" d="M40.59,11.63a4.5,4.5,0,0,0,1.32.18c1.25,0,4.16-1.16,4.16-2.58a.83.83,0,0,0-.91-.84C44,8.39,41.59,10.51,40.59,11.63Z"/><path class="cls-1" d="M42.08,8c-2,.33-3.22,1.48-2.91,2.4A11.68,11.68,0,0,1,42.08,8Z"/><path class="cls-1" d="M35.7,33.23l1.19-.41c-.26-.47-.5-.88-.7-1.19C36,32,35.88,32.6,35.7,33.23Z"/><path class="cls-1" d="M8,20.82c0,.86,3.14,3.45,7.75,5.07,0-2,0-5,0-7.1C12.1,19,8,19.48,8,20.82Z"/></g></g></svg>