<svg xmlns="http://www.w3.org/2000/svg" viewBox="0 0 105.89 34.7"><defs><style>.cls-1{fill:#fff;}</style></defs><title>Asset 24</title><g id="Layer_2" data-name="Layer 2"><g id="Layer_16_copy" data-name="Layer 16 copy"><path class="cls-1" d="M103,14.4a6.11,6.11,0,0,0-6.78-2,28.77,28.77,0,0,0-3.06,1.31,6.85,6.85,0,0,0-8-1.19L85,11.1,74.9,12.33l0,.68H71.46a.66.66,0,0,1-.3-.14,7.68,7.68,0,0,0-9.19.65l-.36.29A8.21,8.21,0,0,0,58.55,11a7.28,7.28,0,0,0-4.23-.66V3.84L43.71,4.1,44,10.47a7.48,7.48,0,0,0-5.57.2,7.81,7.81,0,0,0-3.93,3.9l-1.64-.68a.42.42,0,0,1-.22-.22c-.17-.53-.33-1.06-.51-1.64l1-.1L32,0,0,2.23s0,.07,0,.08Q1,8,2,13.67a.48.48,0,0,0,.38.26c1.62-.12,3.25-.26,4.87-.4l3.2-.24a161.73,161.73,0,0,1-1.75,20.9H22.8l-.5-5.62c.5,0,.93-.05,1.36-.1a.4.4,0,0,1,.49.32,11.1,11.1,0,0,0,.53,1.28,7.38,7.38,0,0,0,9.23,4A6.57,6.57,0,0,0,38,30.84c.13-.27.23-.55.35-.84A8.07,8.07,0,0,0,45,29.66l.34,4.54h11l-.07-1.53h6.49l.27-1.77a7.66,7.66,0,0,0,8.5-.95A5.52,5.52,0,0,0,75,32.4a13.76,13.76,0,0,0,3,.28,11.34,11.34,0,0,0,4.29-1,7,7,0,0,0,5.91,3,6.27,6.27,0,0,0,5.69-3.34l.11,0,.42.23a7.88,7.88,0,0,0,5.07,1,6.79,6.79,0,0,0,4.92-3.77,12.39,12.39,0,0,0,1.21-8.36A12.21,12.21,0,0,0,103,14.4Zm.21,11.67a5.23,5.23,0,0,1-9.12,2.2l-.34-.4c-.11.28-.2.53-.31.77a5.67,5.67,0,0,1-4,3.57,5,5,0,0,1-5.61-2.54.54.54,0,0,0-.7-.33c-1.14.25-2.28.46-3.46.69l-.17-.59a4.7,4.7,0,0,1-2.37.79,3.8,3.8,0,0,1-3.26-1.42,19.45,19.45,0,0,1-1.41-2.26,5.16,5.16,0,0,1-.24-.52c-1.11,2.13-2.7,3.51-5.14,3.6a5.41,5.41,0,0,1-5.39-3.22l-.48,4.13H55.66c.14-1.45.33-2.89.41-4.34s.06-2.81,0-4.21a2.87,2.87,0,0,0-.24-1.06c-.21-.5-.7-.56-.94-.08a5.13,5.13,0,0,0-.64,1.88c-.11,1.56-.08,3.13-.09,4.69s0,2.9,0,4.41H47.35l-.45-8.14c-.66,2.19-1.82,3.91-4.22,4.37a5.13,5.13,0,0,1-5.58-2.41c-.07.68-.11,1.29-.19,1.9A5.32,5.32,0,0,1,30.12,32,5.07,5.07,0,0,1,27.37,30a10.32,10.32,0,0,1-1.47-3.31c-.07-.27-.18-.36-.46-.35l-5,.25-.25,0,.37,5.24h-9.4c.35-3.46.74-6.91,1.05-10.37A84.33,84.33,0,0,0,12.55,11l-6.07.51c-.68.06-1.37.13-2.05.15A.49.49,0,0,1,4,11.43C3.6,9,3.18,6.59,2.76,4.17c0,0,0,0,.05-.12L30.28,2.12l.8,7.89-2.87.18a6.22,6.22,0,0,1,2.06,2.4,7.18,7.18,0,0,1,.73,3,5.69,5.69,0,0,1,4.69,3c.1-.54.16-1,.27-1.49a6.66,6.66,0,0,1,2.1-3.78A5.26,5.26,0,0,1,46,14.44c.13.2.24.4.45.74L45.94,6l6.5-.16v7.42l.16,0,.18-.13a4.76,4.76,0,0,1,5.94.18,7.68,7.68,0,0,1,2.46,4.13l.1.34c2.13-4.9,8-5.51,10.62-1.62L72.08,15h5.14l0-.68,6-.74.32,3.28a5.58,5.58,0,0,1,4.94-3.05,4.68,4.68,0,0,1,4.59,3.25c.22-.31.4-.59.6-.86a5.23,5.23,0,0,1,8.47.14,7.61,7.61,0,0,1,1.38,3.58A15.32,15.32,0,0,1,103.19,26.07Z"/><path class="cls-1" d="M29.47,8.65l-.51-5L4.38,5.35l.86,4.84,8.67-.72A112.92,112.92,0,0,1,12.67,30.4h6.22c0-.29,0-.51,0-.73-.08-1-.21-2.07-.24-3.1-.12-4-.24-8-.29-12,0-1.61.15-3.22.23-4.83,0-.24,0-.41.36-.43,2.6-.14,5.2-.3,7.8-.46Z"/><path class="cls-1" d="M57.67,14.4a3.17,3.17,0,0,0-4.7.69A8.57,8.57,0,0,0,52,17c-.32.84-.52,1.73-.78,2.62L51,7.4H47.44l1.25,23h4.15c0-.2,0-.37,0-.54,0-1.77-.09-3.54-.12-5.32a8.55,8.55,0,0,1,.9-4.22,4.45,4.45,0,0,1,1.24-1.47,1.28,1.28,0,0,1,2,.53,4,4,0,0,1,.37.93,16.54,16.54,0,0,1,.33,5.14c-.07,1.22-.19,2.44-.29,3.7.74,0,1.47,0,2.21,0,.34,0,.43-.12.45-.43.12-1.62.3-3.24.37-4.87a17.06,17.06,0,0,0-.77-6.62A5.82,5.82,0,0,0,57.67,14.4Z"/><path class="cls-1" d="M78.74,15.86c0,.16,0,.27,0,.38.05,2.2.15,4.4.14,6.6a6.36,6.36,0,0,1-.46,2.23,1,1,0,0,1-1.86.09A3,3,0,0,1,76.15,24c-.14-1.44-.26-2.89-.3-4.34,0-1.06.09-2.12.14-3.23-.81,0-1.61,0-2.4,0-.11,0-.29.23-.3.36-.12,1.78-.28,3.57-.3,5.35a8.93,8.93,0,0,0,1.33,5,3.28,3.28,0,0,0,1.87,1.48,3,3,0,0,0,3.37-1.42c.23-.33.43-.69.67-1.09l.47,2.2L83,27.9,82,15.46Z"/><path class="cls-1" d="M32.82,25.38c0,.74,0,1.43,0,2.11a.9.9,0,0,1-.86.88,1,1,0,0,1-1.16-.61c-.28-1-.48-2-.72-3.09l5.6-.89A10.44,10.44,0,0,0,34.33,19a3.84,3.84,0,0,0-2.17-1.78,4.08,4.08,0,0,0-5.12,3A9.71,9.71,0,0,0,27.19,26a8.18,8.18,0,0,0,2.16,3.77A3.81,3.81,0,0,0,35.08,29a6.75,6.75,0,0,0,.74-4.11ZM30,19.79a1.06,1.06,0,0,1,1.93-.24A4.74,4.74,0,0,1,32.71,22l-2.85.42A5,5,0,0,1,30,19.79Z"/><path class="cls-1" d="M42.56,23.83a.92.92,0,0,1-1,.8,1,1,0,0,1-1.07-.77c-.14-1-.2-2.08-.3-3.15l5.63-.16c0-.78,0-1.5,0-2.21a7.29,7.29,0,0,0-.92-3.14,3.54,3.54,0,0,0-2.28-1.77,4.06,4.06,0,0,0-4.82,2.44A9.84,9.84,0,0,0,37.25,22a7.8,7.8,0,0,0,1.58,3.6A3.83,3.83,0,0,0,44.3,26a6.11,6.11,0,0,0,1.55-4.22h-3C42.76,22.51,42.69,23.18,42.56,23.83ZM41,15.58a1,1,0,0,1,1.72.27,4.48,4.48,0,0,1,.44,2.59H40.26A4.27,4.27,0,0,1,41,15.58Z"/><path class="cls-1" d="M90.82,22.82c-1.06-.71-2.08-1.49-3.11-2.25A1.73,1.73,0,0,1,87,18.92a1.46,1.46,0,0,1,1.2-1.46c.64,0,1.15.52,1.24,1.4,0,.5,0,1,0,1.54l2.6.42a7.29,7.29,0,0,0-.48-3.48,3.38,3.38,0,0,0-3.83-2,4.37,4.37,0,0,0-3.36,3.2,3.45,3.45,0,0,0,1.12,4.06c.92.76,1.92,1.42,2.91,2.1a2.91,2.91,0,0,1,1.28,1.67,1.5,1.5,0,0,1-1,1.87,1.32,1.32,0,0,1-1.7-1,8.78,8.78,0,0,1-.27-1.31c0-.18,0-.37-.06-.6l-2.57.22a21.26,21.26,0,0,0,.57,2.77A3.68,3.68,0,0,0,89,30.81a4.5,4.5,0,0,0,3.43-3.73A3.68,3.68,0,0,0,90.82,22.82Z"/><path class="cls-1" d="M64.73,15.82a5.12,5.12,0,0,0-2.08,2.56,9.48,9.48,0,0,0,.26,7.36,3.92,3.92,0,0,0,2.83,2.37,4.47,4.47,0,0,0,5-2.48,10.24,10.24,0,0,0,1-4.46,7.57,7.57,0,0,0-1-4A4.29,4.29,0,0,0,64.73,15.82Zm3.16,8.82a3.31,3.31,0,0,1-.44,1.05,1,1,0,0,1-1.76,0A4.56,4.56,0,0,1,65.14,24a16.31,16.31,0,0,1,.58-5.55,2.91,2.91,0,0,1,.39-.87c.42-.63,1.12-.65,1.45,0a7.71,7.71,0,0,1,.6,1.95,16.8,16.8,0,0,1,.16,1.91l.07,0C68.23,22.5,68.09,23.57,67.88,24.63Z"/><path class="cls-1" d="M102,22.59a9,9,0,0,0-.76-5,3.56,3.56,0,0,0-3.29-2,4.09,4.09,0,0,0-4,3,9.78,9.78,0,0,0-.33,5.19,7.75,7.75,0,0,0,1.58,3.7,3.72,3.72,0,0,0,5.61,0,6.29,6.29,0,0,0,1.21-3.74h-2.9c-.11.73-.19,1.39-.32,2a.85.85,0,0,1-.92.68.94.94,0,0,1-1-.62,9.93,9.93,0,0,1-.21-3.26ZM97.24,17.9A1,1,0,0,1,99,18a4.46,4.46,0,0,1,.42,2.47H96.66A4.28,4.28,0,0,1,97.24,17.9Z"/><path class="cls-1" d="M29.28,15.7a.53.53,0,0,0,.24-.42,5.29,5.29,0,0,0-1.23-3.11c-1.47-1.76-3.33-1.53-4.33.54-.21.44-.37.9-.57,1.39v-2l-3,.27.76,12.76,3.6-.19c0-.23-.06-.39-.09-.54a38.56,38.56,0,0,1-.84-7.07,3.23,3.23,0,0,1,.66-2,1,1,0,0,1,1.77.11,10.72,10.72,0,0,1,.51,1.24C27.62,16.34,28.46,16,29.28,15.7Z"/></g></g></svg>