<svg xmlns="http://www.w3.org/2000/svg" viewBox="0 0 84.9 34.22"><defs><style>.cls-1{fill:#fff;}</style></defs><title>Asset 23</title><g id="Layer_2" data-name="Layer 2"><g id="Layer_16_copy" data-name="Layer 16 copy"><path class="cls-1" d="M66.07,9.8c-.65.08-2.46,1.67-2.52,6.71s1.61,6.8,2.52,6.71,2.46-1.95,2.43-7S66.91,9.69,66.07,9.8Z"/><path class="cls-1" d="M53.71,15c-.57,0-1.78,1.61-1.89,4.89s1,5.54,1.89,5.51,1.87-2.29,1.89-5.68S54.39,14.93,53.71,15Z"/><path class="cls-1" d="M72.55,4.85l-2.43.27-.42-.39a6,6,0,0,0-4.06-1.52c-.24,0-6.13.46-6.13.46V2.73L42.73,0,29.88,2.1l-3.06-.37-4.93.87v.79L0,7l.18,6.49,3.22-.21.35,13.9,8.4,1.51,0,.55,10,1.69,1.42-.15,19.18,3.47,5.78-1V31.63l4.05.5a6.6,6.6,0,0,0,2-.06c1.22-.28,2.36-1.56,3.2-2.36l6.2.61a6.56,6.56,0,0,0,2.44,0,5.94,5.94,0,0,0,2.77-1.44l1.92.18,13.29-2.41L84.9,6.87Zm-51,24.59L13.12,28,13,12.73,21.41,12v3.92L17.2,16v3.11h2.69v2.47l-2.68-.07,0,3.48,4.27.42Zm0-19.49L11.17,11.06,11.43,27l-6.11-.84L5,11.64,1.11,12,1,8.08l20.56-3Zm12.89,21L22.92,29.17,22.8,3.52,26.28,3l.08,22.31,8.07.85ZM37,13.09l-6.25.34.12,2.32,3.92,0,0,2.49-3.85,0-.12,2.68L37,21v3.6l-8.78-.75-.12-13.19L37,9.7Zm9.94,18.65-4.18.66-4.15-.65V7.64l-10.89,1,0-4.6,15.09-2.3L58.28,4l0,4.69L46.91,7.64ZM58,24.92v.14c-.78,3.56-2.8,6-4.48,6s-5.05-2.61-5.29-8.41.66-8,1.47-9.93S52.14,9,53.49,9c1.08,0,2.89.95,4.06,4.27A23.32,23.32,0,0,1,58,24.92ZM71.1,23.73c-1,3-3.16,5.39-5.15,5.54-1.71.13-4.22-1.11-5.72-4.76a20.54,20.54,0,0,1-.06-14.22c1.69-4.76,4.56-5.79,5.66-5.9,1.57-.15,4.22,1.05,5.69,6.2A22.43,22.43,0,0,1,71.1,23.73Zm12.35,1.94-2.85.48-3.05-7.68-.2,8.24-4,.65L73.61,6l3.84.62L80.76,14V7.11l3.08.45Z"/></g></g></svg>